<svg width="49" height="18" viewBox="0 0 49 18" fill="none" xmlns="http://www.w3.org/2000/svg">
<path d="M1.07553 17C1.01153 17 0.979531 16.96 0.979531 16.88L1.02753 0.415999C1.02753 0.335999 1.05953 0.295999 1.12353 0.295999H3.81153C3.87553 0.295999 3.90753 0.335999 3.90753 0.415999V6.104L7.67553 0.391999C7.72353 0.327999 7.77953 0.295999 7.84353 0.295999H10.6035C10.6675 0.295999 10.6835 0.327999 10.6515 0.391999L6.49953 7.016L11.1555 16.904C11.1875 16.968 11.1475 17 11.0355 17H8.10753C8.02753 17 7.97953 16.968 7.96353 16.904L4.72353 9.848L3.88353 11.168V16.88C3.88353 16.96 3.85153 17 3.78753 17H1.07553ZM12.3495 17C12.2695 17 12.2295 16.96 12.2295 16.88L12.2535 0.391999C12.2535 0.327999 12.2855 0.295999 12.3495 0.295999H15.0375C15.1015 0.295999 15.1335 0.327999 15.1335 0.391999L15.1575 16.88C15.1575 16.96 15.1255 17 15.0615 17H12.3495ZM21.7086 17.24C20.8446 17.24 20.0526 17.024 19.3326 16.592C18.6286 16.144 18.0606 15.56 17.6286 14.84C17.1966 14.104 16.9806 13.296 16.9806 12.416L17.0046 4.808C17.0046 3.928 17.2126 3.128 17.6286 2.408C18.0606 1.688 18.6366 1.112 19.3566 0.68C20.0766 0.248 20.8606 0.0319996 21.7086 0.0319996C22.5726 0.0319996 23.3566 0.248 24.0606 0.68C24.7646 1.112 25.3246 1.688 25.7406 2.408C26.1726 3.128 26.3886 3.928 26.3886 4.808L26.4126 12.416C26.4126 13.296 26.1966 14.104 25.7646 14.84C25.3486 15.56 24.7806 16.144 24.0606 16.592C23.3566 17.024 22.5726 17.24 21.7086 17.24ZM21.7086 14.336C22.1886 14.336 22.6046 14.144 22.9566 13.76C23.3246 13.36 23.5086 12.912 23.5086 12.416L23.4846 4.808C23.4846 4.28 23.3166 3.832 22.9806 3.464C22.6446 3.096 22.2206 2.912 21.7086 2.912C21.2126 2.912 20.7886 3.096 20.4366 3.464C20.0846 3.816 19.9086 4.264 19.9086 4.808V12.416C19.9086 12.944 20.0846 13.4 20.4366 13.784C20.7886 14.152 21.2126 14.336 21.7086 14.336ZM32.3173 17.24C31.4533 17.24 30.6613 17.024 29.9413 16.592C29.2373 16.144 28.6693 15.56 28.2373 14.84C27.8213 14.104 27.6133 13.296 27.6133 12.416V11.312C27.6133 11.232 27.6533 11.192 27.7333 11.192H30.4213C30.4853 11.192 30.5173 11.232 30.5173 11.312V12.416C30.5173 12.944 30.6933 13.4 31.0453 13.784C31.3973 14.152 31.8213 14.336 32.3173 14.336C32.8133 14.336 33.2373 14.144 33.5893 13.76C33.9413 13.376 34.1173 12.928 34.1173 12.416C34.1173 11.824 33.7333 11.312 32.9653 10.88C32.7093 10.736 32.3093 10.512 31.7653 10.208C31.2213 9.904 30.7093 9.616 30.2293 9.344C29.3493 8.832 28.6933 8.192 28.2613 7.424C27.8453 6.64 27.6373 5.76 27.6373 4.784C27.6373 3.888 27.8533 3.088 28.2853 2.384C28.7173 1.664 29.2853 1.096 29.9893 0.68C30.7093 0.263999 31.4853 0.0559993 32.3173 0.0559993C33.1653 0.0559993 33.9413 0.271999 34.6453 0.704C35.3653 1.12 35.9333 1.688 36.3493 2.408C36.7813 3.112 36.9973 3.904 36.9973 4.784V6.752C36.9973 6.816 36.9653 6.848 36.9013 6.848H34.2133C34.1493 6.848 34.1173 6.816 34.1173 6.752L34.0933 4.784C34.0933 4.224 33.9173 3.768 33.5653 3.416C33.2133 3.064 32.7973 2.888 32.3173 2.888C31.8213 2.888 31.3973 3.08 31.0453 3.464C30.6933 3.832 30.5173 4.272 30.5173 4.784C30.5173 5.312 30.6293 5.752 30.8533 6.104C31.0773 6.456 31.4853 6.792 32.0773 7.112C32.1573 7.16 32.3093 7.248 32.5333 7.376C32.7733 7.488 33.0293 7.624 33.3013 7.784C33.5733 7.928 33.8133 8.056 34.0213 8.168C34.2453 8.28 34.3813 8.352 34.4293 8.384C35.2293 8.832 35.8613 9.384 36.3253 10.04C36.7893 10.68 37.0213 11.472 37.0213 12.416C37.0213 13.328 36.8053 14.152 36.3733 14.888C35.9573 15.608 35.3893 16.184 34.6693 16.616C33.9653 17.032 33.1813 17.24 32.3173 17.24ZM38.7865 17C38.7225 17 38.6905 16.96 38.6905 16.88L38.7385 0.415999C38.7385 0.335999 38.7705 0.295999 38.8345 0.295999H41.5225C41.5865 0.295999 41.6185 0.335999 41.6185 0.415999V6.104L45.3865 0.391999C45.4345 0.327999 45.4905 0.295999 45.5545 0.295999H48.3145C48.3785 0.295999 48.3945 0.327999 48.3625 0.391999L44.2105 7.016L48.8665 16.904C48.8985 16.968 48.8585 17 48.7465 17H45.8185C45.7385 17 45.6905 16.968 45.6745 16.904L42.4345 9.848L41.5945 11.168V16.88C41.5945 16.96 41.5625 17 41.4985 17H38.7865Z" fill="black"/>
</svg>
