<svg width="445" height="368" viewBox="0 0 445 368" fill="none" xmlns="http://www.w3.org/2000/svg">
<path opacity="0.65" fill-rule="evenodd" clip-rule="evenodd" d="M230.377 0.982949C275.797 5.4987 308.507 40.0907 341.649 71.4761C376.228 104.223 416.54 135.475 422.315 182.748C428.646 234.575 410.28 288.828 372.619 324.991C335.544 360.591 281.771 367.813 230.377 367.048C179.927 366.298 125.037 359.218 92.3039 320.821C60.9705 284.066 72.8679 231.045 73.2616 182.748C73.65 135.104 63.3795 82.9539 94.5369 46.9081C127.031 9.3164 180.932 -3.93291 230.377 0.982949Z" fill="#F1F1F4"/>
<g clip-path="url(#clip0_219_2647)">
<path d="M408.404 78.2128L398.949 98.3428L397.477 96.12L397.029 95.4429L396.266 95.7554L390.854 97.9708L388.323 92.8999L387.91 92.0721L387.044 92.4356L377.261 96.5398L372.744 82.9503L372.44 82.0339L371.504 82.324L362.37 85.1568L360.341 80.5073L359.994 79.7121L359.149 79.959L347.547 83.3495L346.141 76.9466L360.033 47.3709C361.203 44.8785 364.165 43.7604 366.668 44.8659L400.888 59.9803L408.404 78.2128Z" stroke="#0D0D0D" stroke-width="2"/>
<path d="M401.731 59.7049L409.539 78.0547L399.566 73.7043C397.522 72.8126 396.635 70.4183 397.599 68.3912L401.731 59.7049Z" fill="#0D0D0D"/>
<path d="M331.253 108.508L342.599 84.2424L343.658 89.1461L343.883 90.1835L344.914 89.8782L356.67 86.3973L358.684 91.0763L359.036 91.8934L359.897 91.6233L368.93 88.7909L373.433 102.537L373.767 103.558L374.77 103.132L384.664 98.9359L387.168 104.012L387.577 104.84L388.445 104.482L393.943 102.211L395.631 104.786L383.112 131.575C381.943 134.076 378.972 135.198 376.465 134.085L333.696 115.107C331.171 113.986 330.075 111.027 331.253 108.508Z" stroke="#0D0D0D" stroke-width="2"/>
<path d="M284.438 43.3489L289.655 124.613L209.06 129.42L203.013 35.2577C202.8 31.9403 205.324 29.082 208.643 28.8839L262.567 25.6639L284.438 43.3489Z" stroke="#0D0D0D" stroke-width="2"/>
<path d="M262.895 24.6426L285.408 42.8471L270.104 43.7612C266.806 43.9582 263.969 41.4518 263.759 38.1546L262.895 24.6426Z" fill="#0D0D0D"/>
<path d="M241.224 86.8636L240.991 85.2056C240.392 81.7722 241.367 77.9306 244.469 73.9157C247.268 70.3445 248.785 67.7937 248.615 64.896C248.424 61.631 246.171 59.5699 241.977 59.7332C239.58 59.8529 237.278 60.6714 235.376 62.0799L233.547 58.1364C235.668 56.4783 239.379 55.2539 242.905 55.0754C250.555 54.6673 254.277 59.024 254.569 63.8859C254.824 68.2376 252.48 71.5077 249.5 75.3288C246.765 78.8132 245.869 81.6854 246.256 84.9352L246.42 86.5983L241.224 86.8636ZM240.28 95.8985C240.142 93.5314 241.707 91.7764 244.034 91.654C246.362 91.5316 248.058 93.1029 248.196 95.4751C248.323 97.7147 246.897 99.5207 244.437 99.6533C242.088 99.7809 240.392 98.1382 240.259 95.8985H240.28Z" fill="#0D0D0D"/>
<path d="M67.3913 83.6079C68.2705 81.7406 67.4342 79.5159 65.5427 78.6901L60.9078 76.6665C58.9884 75.8286 56.7506 76.6683 55.8564 78.5621C55.6193 79.048 55.2494 79.4625 54.7864 79.7611C54.3234 80.0598 53.7848 80.2312 53.2283 80.2572C52.5944 80.2772 51.9625 80.3365 51.3365 80.4346C50.787 80.5132 50.2256 80.4466 49.7124 80.2418C49.1991 80.0369 48.7531 79.7016 48.4221 79.2717C47.1618 77.5734 44.7822 77.18 43.0423 78.3822L38.9845 81.1861C37.2788 82.3647 36.889 84.7221 38.1246 86.387C38.4389 86.8265 38.6239 87.3399 38.6599 87.8726C38.6959 88.4053 38.5816 88.9374 38.3291 89.4125C38.0375 89.9545 37.7747 90.5103 37.5417 91.078C37.3391 91.5786 36.9988 92.0165 36.5574 92.3446C36.116 92.6728 35.5901 92.8788 35.0363 92.9406C32.9117 93.1416 31.3572 95.0346 31.5734 97.1577L32.024 101.583C32.2422 103.725 34.1505 105.289 36.2941 105.082C36.8499 105.039 37.4074 105.143 37.9064 105.383C38.4055 105.622 38.8274 105.989 39.1267 106.442C39.2903 106.698 39.4642 106.945 39.6482 107.191C39.8323 107.437 40.0164 107.674 40.2107 107.91C40.5636 108.324 40.7905 108.824 40.8663 109.355C40.9421 109.885 40.8639 110.426 40.6402 110.916C39.7553 112.794 40.5958 115.033 42.4983 115.864L47.1079 117.879C49.0346 118.721 51.2815 117.875 52.175 115.972C52.4143 115.486 52.7864 115.073 53.2513 114.776C53.7161 114.479 54.2562 114.31 54.8133 114.287C55.4401 114.262 56.0649 114.203 56.6847 114.109C57.2342 114.031 57.7956 114.097 58.3089 114.302C58.8221 114.507 59.2681 114.842 59.5991 115.272C60.8596 116.971 63.2393 117.365 64.9799 116.163L69.0459 113.356C70.752 112.179 71.1423 109.821 69.9069 108.157C69.5829 107.721 69.392 107.207 69.3558 106.672C69.3197 106.137 69.4397 105.604 69.7023 105.131C69.9872 104.592 70.2432 104.04 70.4693 103.476C70.666 102.971 71.0046 102.53 71.4471 102.201C71.8897 101.872 72.4187 101.668 72.9746 101.613C75.1113 101.407 76.6719 99.5007 76.4526 97.3652L76.0003 92.9597C75.7802 90.8157 73.8728 89.2501 71.7271 89.4519C71.1747 89.4987 70.6197 89.3973 70.1235 89.159C69.6272 88.9208 69.2089 88.5549 68.9149 88.1018C68.7411 87.8456 68.5673 87.5992 68.3832 87.3528C68.1991 87.1064 68.0151 86.8601 67.8208 86.6334C67.4703 86.2145 67.245 85.7114 67.1693 85.1782C67.0936 84.6451 67.1704 84.1021 67.3913 83.6079ZM62.4521 91.4427C63.648 93.0509 64.322 94.9647 64.3892 96.9422C64.4563 98.9197 63.9134 100.872 62.8291 102.552C61.7449 104.232 60.168 105.565 58.2979 106.381C56.4279 107.197 54.3486 107.461 52.3231 107.138C50.2976 106.816 48.4168 105.921 46.9187 104.569C45.4205 103.216 44.3723 101.465 43.9066 99.5383C43.4409 97.6114 43.5786 95.5947 44.3022 93.7431C45.0259 91.8916 46.3031 90.2885 47.9722 89.1366C50.2098 87.5923 52.9922 86.9677 55.7076 87.4001C58.423 87.8326 60.849 89.2867 62.4521 91.4427Z" fill="#0D0D0D"/>
<path d="M408.835 177.577C408.288 176.671 407.122 176.36 406.197 176.875L403.981 178.107C403.071 178.613 402.761 179.772 403.297 180.665C403.443 180.899 403.516 181.169 403.507 181.442C403.498 181.715 403.407 181.98 403.245 182.205C403.076 182.46 402.914 182.723 402.766 183C402.646 183.245 402.454 183.451 402.215 183.594C401.977 183.738 401.7 183.812 401.419 183.809C400.345 183.809 399.475 184.679 399.475 185.753V188.017C399.475 189.099 400.352 189.976 401.434 189.976C401.715 189.973 401.991 190.048 402.23 190.191C402.469 190.334 402.66 190.541 402.781 190.785C402.929 191.062 403.091 191.325 403.26 191.58C403.421 191.805 403.512 192.07 403.521 192.343C403.531 192.616 403.458 192.886 403.311 193.12C402.776 194.013 403.086 195.172 403.996 195.678L406.198 196.903C407.13 197.422 408.306 197.108 408.857 196.194C409 195.961 409.207 195.771 409.456 195.646C409.704 195.521 409.984 195.465 410.263 195.484H411.206C411.486 195.465 411.765 195.522 412.013 195.647C412.262 195.772 412.469 195.962 412.613 196.194C413.163 197.111 414.342 197.427 415.277 196.906L417.462 195.689C418.375 195.181 418.687 194.018 418.151 193.12C418.011 192.885 417.943 192.617 417.954 192.346C417.964 192.075 418.053 191.812 418.21 191.587C418.379 191.332 418.541 191.062 418.688 190.793C418.809 190.548 419.001 190.341 419.239 190.198C419.478 190.055 419.755 189.98 420.036 189.983C421.118 189.983 421.995 189.106 421.995 188.025V185.79C421.995 184.7 421.111 183.816 420.021 183.816C419.74 183.819 419.463 183.745 419.225 183.601C418.986 183.458 418.795 183.252 418.674 183.007C418.526 182.737 418.364 182.467 418.195 182.212C418.038 181.987 417.949 181.724 417.939 181.454C417.928 181.183 417.997 180.914 418.136 180.679C418.672 179.782 418.36 178.619 417.447 178.11L415.241 176.881C414.316 176.366 413.149 176.674 412.598 177.577C412.455 177.81 412.248 178 411.999 178.125C411.751 178.25 411.471 178.306 411.191 178.287H410.72H410.249C409.968 178.305 409.688 178.249 409.438 178.124C409.189 177.998 408.98 177.809 408.835 177.577ZM410.72 181.839C410.72 181.841 410.722 181.843 410.724 181.843C411.76 181.842 412.774 182.137 413.636 182.692C414.499 183.246 415.173 184.035 415.57 184.959C415.968 185.883 416.073 186.899 415.87 187.88C415.668 188.861 415.169 189.762 414.435 190.469C413.701 191.176 412.766 191.658 411.749 191.853C410.731 192.047 409.676 191.947 408.717 191.563C407.759 191.18 406.94 190.531 406.365 189.699C405.789 188.867 405.482 187.889 405.484 186.889C405.483 186.226 405.618 185.569 405.88 184.956C406.143 184.343 406.529 183.786 407.015 183.316C407.501 182.847 408.079 182.475 408.715 182.221C409.349 181.967 410.03 181.836 410.717 181.836C410.718 181.836 410.72 181.837 410.72 181.839Z" fill="#0D0D0D"/>
<path d="M94.0711 45.8436C93.0933 44.6851 91.3841 44.4845 90.1646 45.3851L87.4103 47.4192C86.2472 48.2782 86.0223 49.9277 86.9129 51.0668C87.1554 51.3631 87.3046 51.7202 87.3427 52.0958C87.3807 52.4714 87.3061 52.8497 87.1277 53.1856C86.932 53.5692 86.7612 53.9642 86.6164 54.3682C86.4903 54.7241 86.2637 55.0391 85.962 55.2776C85.6603 55.5162 85.2955 55.6688 84.9086 55.7183C83.4223 55.9028 82.3725 57.2651 82.5729 58.7493L82.9904 61.8427C83.192 63.3363 84.5583 64.3892 86.054 64.2035C86.4469 64.1508 86.8474 64.206 87.2092 64.3629C87.571 64.5198 87.8795 64.772 88.0991 65.0905C88.3454 65.4333 88.6117 65.7624 88.8968 66.076C89.1602 66.3552 89.3349 66.7014 89.4002 67.0736C89.4655 67.4457 89.4185 67.828 89.2649 68.1751C88.7031 69.5071 89.3427 71.0409 90.6843 71.5791L93.9811 72.9016C95.3367 73.4454 96.878 72.8027 97.4457 71.4569C97.5978 71.1091 97.8481 70.8093 98.168 70.5916C98.4879 70.3739 98.8647 70.2469 99.2557 70.225L99.9101 70.156L100.554 70.0574C100.933 69.9887 101.324 70.0213 101.684 70.1516C102.045 70.2819 102.361 70.505 102.6 70.7966C103.529 71.9676 105.22 72.1916 106.423 71.3033L109.179 69.2679C110.345 68.4064 110.566 66.7498 109.666 65.6128C109.428 65.3124 109.282 64.954 109.244 64.5779C109.206 64.2019 109.278 63.8231 109.451 63.4841C109.645 63.1031 109.816 62.7115 109.962 62.3114C110.088 61.9555 110.315 61.6405 110.617 61.402C110.918 61.1634 111.283 61.0108 111.67 60.9612C113.156 60.7768 114.206 59.4145 114.006 57.9302L113.588 54.8369C113.387 53.3433 112.02 52.2904 110.525 52.476C110.133 52.5299 109.733 52.4761 109.371 52.321C109.009 52.1658 108.7 51.9156 108.479 51.5989C108.224 51.2442 107.958 50.9091 107.672 50.6134C107.433 50.3282 107.279 49.9865 107.225 49.6241C107.171 49.2617 107.219 48.892 107.365 48.5537C107.927 47.2218 107.287 45.688 105.945 45.1498L102.649 43.8273C101.293 43.2835 99.7517 43.9262 99.1841 45.272C99.0299 45.6184 98.7792 45.917 98.4597 46.1344C98.1402 46.3519 97.7644 46.4798 97.3741 46.5039L96.7196 46.563L96.4107 46.5731C96.2147 46.5795 96.0197 46.6069 95.8238 46.6157C95.5397 46.6284 95.2548 46.5855 94.9865 46.4886C94.626 46.3583 94.3093 46.1352 94.0711 45.8436ZM97.3741 51.4018C98.7985 51.2254 100.245 51.4594 101.532 52.0745C102.819 52.6895 103.887 53.658 104.603 54.8577C105.32 56.0575 105.651 57.4347 105.556 58.8158C105.461 60.1968 104.943 61.5198 104.069 62.6178C103.194 63.7157 102.002 64.5395 100.642 64.9853C99.2828 65.431 97.8166 65.4787 96.4289 65.1222C95.0411 64.7658 93.794 64.0213 92.8448 62.9826C91.8956 61.944 91.2868 60.6576 91.0953 59.2859C90.9676 58.3705 91.0288 57.4398 91.2756 56.5473C91.5224 55.6548 91.9499 54.8181 92.5334 54.0854C93.1169 53.3527 93.845 52.7384 94.6757 52.2779C95.5065 51.8173 96.4235 51.5196 97.3741 51.4018Z" fill="#0D0D0D"/>
<path d="M29.79 148.831C27.7574 147.611 25.4354 146.913 23.0442 146.801C23.0325 146.801 23.0212 146.805 23.0129 146.813C23.0047 146.821 23 146.832 23 146.843C23 146.855 23.0047 146.865 23.0129 146.873C23.0212 146.881 23.0325 146.886 23.0442 146.886C25.3561 147.308 27.5997 148.024 29.7163 149.015C29.8047 149.036 29.871 148.887 29.79 148.831Z" fill="white"/>
<path d="M31.1523 177.908C29.5901 177.044 27.8699 176.478 26.0856 176.24C26.0266 176.24 26.0193 176.318 26.0856 176.333C27.828 176.669 29.5133 177.238 31.0934 178.022C31.1596 178.057 31.2186 177.944 31.1523 177.908Z" fill="white"/>
<path d="M66.0593 175.233C65.1283 175.099 64.1845 175.068 63.2461 175.14C63.1357 175.14 63.143 175.325 63.2461 175.332C64.174 175.332 65.1093 175.29 66.0372 175.332C66.0478 175.33 66.0575 175.324 66.0651 175.316C66.0726 175.309 66.0779 175.299 66.0802 175.289C66.0825 175.279 66.0817 175.268 66.078 175.258C66.0744 175.248 66.0679 175.239 66.0593 175.233Z" fill="white"/>
<path d="M55.9037 192.897C54.4106 192.927 52.9346 193.21 51.5439 193.735C51.5439 193.735 51.5439 193.806 51.5439 193.799C53.0168 193.465 54.4382 193.33 55.8963 193.089C55.9153 193.081 55.9316 193.068 55.9433 193.051C55.955 193.035 55.9616 193.016 55.9624 192.996C55.9632 192.976 55.9581 192.956 55.9477 192.938C55.9373 192.921 55.922 192.907 55.9037 192.897Z" fill="white"/>
<path d="M52.8551 186.794C52.2352 186.789 51.6163 186.842 51.0067 186.95C50.9954 186.954 50.9857 186.962 50.9788 186.971C50.9719 186.981 50.9683 186.992 50.9683 187.004C50.9683 187.015 50.9719 187.027 50.9788 187.036C50.9857 187.046 50.9954 187.053 51.0067 187.057C51.624 187.091 52.2433 187.065 52.8551 186.979C52.8805 186.979 52.9049 186.969 52.9228 186.952C52.9408 186.934 52.9509 186.911 52.9509 186.886C52.9509 186.862 52.9408 186.839 52.9228 186.821C52.9049 186.804 52.8805 186.794 52.8551 186.794Z" fill="white"/>
<path d="M25.0985 201.783C23.7438 201.692 22.3836 201.854 21.0923 202.259C21.0923 202.259 21.0923 202.323 21.0923 202.316C22.4097 202.098 23.7407 201.965 25.0764 201.918C25.1722 201.918 25.1942 201.791 25.0985 201.783Z" fill="white"/>
<path d="M13.0797 186.595C12.4618 186.546 11.8398 186.58 11.2313 186.694C11.165 186.694 11.1871 186.808 11.2313 186.801C11.8425 186.737 12.439 186.758 13.0429 186.744C13.0617 186.745 13.0801 186.739 13.0951 186.728C13.11 186.717 13.1206 186.702 13.1249 186.684C13.1293 186.666 13.1272 186.648 13.1189 186.632C13.1107 186.615 13.0968 186.602 13.0797 186.595Z" fill="white"/>
<path d="M17.3496 256.308H444.484" stroke="#0D0D0D" stroke-width="2" stroke-linecap="round" stroke-linejoin="round"/>
<mask id="path-19-inside-1_219_2647" fill="white">
<path fill-rule="evenodd" clip-rule="evenodd" d="M218.039 95.6045C223.216 95.6045 227.538 99.5571 227.999 104.714L228.826 113.972H361.572C368.44 113.972 373.629 120.196 372.393 126.952L342.327 291.298H128.745C123.126 291.298 118.881 286.205 119.892 280.678L150.389 113.972H150.668L152.352 103.947C153.162 99.1314 157.331 95.6045 162.214 95.6045H218.039Z"/>
</mask>
<path fill-rule="evenodd" clip-rule="evenodd" d="M218.039 95.6045C223.216 95.6045 227.538 99.5571 227.999 104.714L228.826 113.972H361.572C368.44 113.972 373.629 120.196 372.393 126.952L342.327 291.298H128.745C123.126 291.298 118.881 286.205 119.892 280.678L150.389 113.972H150.668L152.352 103.947C153.162 99.1314 157.331 95.6045 162.214 95.6045H218.039Z" fill="white"/>
<path d="M227.999 104.714L226.007 104.892V104.892L227.999 104.714ZM228.826 113.972L226.834 114.15L226.997 115.972H228.826V113.972ZM372.393 126.952L374.36 127.312V127.312L372.393 126.952ZM342.327 291.298V293.298H343.995L344.295 291.658L342.327 291.298ZM119.892 280.678L117.924 280.318L119.892 280.678ZM150.389 113.972V111.972H148.722L148.422 113.612L150.389 113.972ZM150.668 113.972V115.972H152.359L152.64 114.304L150.668 113.972ZM152.352 103.947L150.38 103.616L152.352 103.947ZM229.991 104.536C229.438 98.3476 224.252 93.6045 218.039 93.6045V97.6045C222.181 97.6045 225.638 100.767 226.007 104.892L229.991 104.536ZM230.818 113.794L229.991 104.536L226.007 104.892L226.834 114.15L230.818 113.794ZM228.826 115.972H361.572V111.972H228.826V115.972ZM361.572 115.972C367.192 115.972 371.437 121.064 370.426 126.592L374.36 127.312C375.821 119.328 369.689 111.972 361.572 111.972V115.972ZM370.426 126.592L340.36 290.938L344.295 291.658L374.36 127.312L370.426 126.592ZM342.327 289.298H128.745V293.298H342.327V289.298ZM128.745 289.298C124.374 289.298 121.073 285.337 121.859 281.038L117.924 280.318C116.688 287.074 121.877 293.298 128.745 293.298V289.298ZM121.859 281.038L152.356 114.332L148.422 113.612L117.924 280.318L121.859 281.038ZM150.389 115.972H150.668V111.972H150.389V115.972ZM150.38 103.616L148.695 113.641L152.64 114.304L154.325 104.279L150.38 103.616ZM162.214 93.6045C156.354 93.6045 151.351 97.8368 150.38 103.616L154.325 104.279C154.972 100.426 158.307 97.6045 162.214 97.6045V93.6045ZM218.039 93.6045H162.214V97.6045H218.039V93.6045Z" fill="#0D0D0D" mask="url(#path-19-inside-1_219_2647)"/>
<path d="M134.857 122.283C134.077 123.002 133.206 123.624 132.265 124.136C131.342 124.666 130.352 125.081 129.319 125.371C130.097 124.648 130.968 124.025 131.912 123.518C132.834 122.985 133.824 122.57 134.857 122.283Z" fill="#0D0D0D"/>
<path d="M139.747 126.818C139.12 128.816 138.024 130.647 136.544 132.17C136.844 131.173 137.277 130.219 137.833 129.331C138.358 128.418 139.001 127.574 139.747 126.818Z" fill="#0D0D0D"/>
<path d="M146.346 128.387C146.603 129.397 146.726 130.434 146.714 131.474C146.73 132.514 146.606 133.552 146.346 134.561C146.082 133.552 145.958 132.514 145.978 131.474C145.965 130.434 146.089 129.397 146.346 128.387Z" fill="#0D0D0D"/>
<path d="M152.871 126.605C153.62 127.354 154.267 128.194 154.793 129.103C155.346 129.992 155.777 130.946 156.074 131.942C154.594 130.419 153.498 128.588 152.871 126.591V126.605Z" fill="#0D0D0D"/>
<path d="M157.577 121.851C158.61 122.137 159.6 122.552 160.522 123.086C161.466 123.593 162.337 124.215 163.115 124.938C162.081 124.651 161.091 124.236 160.169 123.703C159.226 123.196 158.354 122.573 157.577 121.851Z" fill="#0D0D0D"/>
<path d="M310.156 126.307L340.791 290.297H122.121C119.714 290.297 117.648 288.582 117.206 286.216L87.2954 126.144C86.8356 123.683 88.7238 121.409 91.2274 121.409H304.258C307.146 121.409 309.625 123.468 310.156 126.307Z" fill="#E6E5E9" stroke="#504D64" stroke-width="2"/>
<path d="M146.708 224.874C151.869 224.874 156.053 220.842 156.053 215.868C156.053 210.894 151.869 206.861 146.708 206.861C141.546 206.861 137.362 210.894 137.362 215.868C137.362 220.842 141.546 224.874 146.708 224.874Z" fill="#0D0D0D"/>
<path d="M220.588 224.874C225.749 224.874 229.933 220.842 229.933 215.868C229.933 210.894 225.749 206.861 220.588 206.861C215.426 206.861 211.242 210.894 211.242 215.868C211.242 220.842 215.426 224.874 220.588 224.874Z" fill="#0D0D0D"/>
<path d="M191.876 235.523C191.876 229.923 187.402 225.384 181.882 225.384C176.362 225.384 171.887 229.923 171.887 235.523" stroke="#0D0D0D" stroke-width="2" stroke-linecap="round"/>
<path d="M313.134 141.311L341.382 290.78" stroke="#0D0D0D" stroke-width="2" stroke-linecap="round" stroke-linejoin="round"/>
<path d="M52.1221 198.056V214.785M55.2782 211.743L54.2262 214.785" stroke="#0D0D0D" stroke-width="2"/>
<path d="M39.094 124.414C39.094 124.414 27.8707 151.881 30.3819 158.311C32.8932 164.741 38.0777 166.118 38.0777 166.118C38.0777 166.118 31.2067 175.571 36.0083 184.436C40.8099 193.3 51.4736 192.881 52.21 202.931C52.1879 202.981 52.7771 160.958 39.094 124.414Z" stroke="#0D0D0D" stroke-width="2" stroke-linecap="round" stroke-linejoin="round"/>
<path d="M55.3101 212.073C58.0127 207.86 61.1887 203.947 64.7807 200.405C70.3997 194.99 75.1276 191.143 75.8641 187.566C76.6005 183.989 70.2377 181.349 70.2377 181.349C70.2377 181.349 78.0071 182.697 80.1354 179.553C82.2637 176.409 83.2874 158.197 83.2874 158.197C83.2874 158.197 69.1478 167.928 62.5566 181.569C55.9655 195.21 55.3101 212.073 55.3101 212.073Z" stroke="#0D0D0D" stroke-width="2" stroke-linecap="round" stroke-linejoin="round"/>
<path d="M48.6901 215.16C45.4906 212.354 41.9813 209.896 38.2253 207.828C32.378 204.698 27.6279 202.64 26.1771 199.908C24.7264 197.175 29.2407 193.627 29.2407 193.627C29.2407 193.627 23.2756 196.466 20.8011 194.372C18.3267 192.278 13.1274 177.8 13.1274 177.8C13.1274 177.8 26.9062 182.52 35.5005 192.094C44.0947 201.668 48.6901 215.16 48.6901 215.16Z" stroke="#0D0D0D" stroke-width="2" stroke-linecap="round" stroke-linejoin="round"/>
<path d="M61.037 225.215L65.3478 256.061H36.5443L40.7842 225.215L40.7847 225.211L41.7968 218.048H60.0244L61.0367 225.213L61.037 225.215Z" fill="#E6E5E9" stroke="#0D0D0D" stroke-width="2"/>
<path d="M61.6269 222.389H40.2227L40.882 217.319H61.0147L61.6269 222.389Z" fill="#0D0D0D"/>
<path d="M39.0708 220.065V215.266H62.7431V220.065H39.0708Z" fill="#E6E5E9" stroke="#0D0D0D" stroke-width="2"/>
<path d="M112.037 262.897L85 256.767L111.059 256L112.037 262.897Z" fill="#0D0D0D"/>
<path d="M341.337 289L344.335 272.192C344.143 273.257 342.63 273.3 342.378 272.247L327 208L341.337 289Z" fill="#504D64"/>
</g>
<defs>
<clipPath id="clip0_219_2647">
<rect width="445.02" height="267.669" fill="white" transform="translate(-0.00976562 24.6318)"/>
</clipPath>
</defs>
</svg>
